<svg width="36" height="36" viewBox="0 0 36 36" fill="none" xmlns="http://www.w3.org/2000/svg">
<g clip-path="url(#clip0_99_190)">
<path d="M22.4239 10.5126H14.8454C14.7675 10.5045 14.6888 10.5124 14.6141 10.5358C14.5393 10.5592 14.4702 10.5976 14.4108 10.6487C14.3514 10.6998 14.3031 10.7624 14.2688 10.8328C14.2346 10.9032 14.215 10.9799 14.2114 11.0581V12.9749C14.2114 13.255 14.4916 13.4614 14.8454 13.4614H22.4239C22.7778 13.4614 23.0579 13.255 23.0579 12.9749V11.0581C23.0543 10.9799 23.0348 10.9032 23.0005 10.8328C22.9662 10.7624 22.9179 10.6998 22.8585 10.6487C22.7992 10.5976 22.73 10.5592 22.6553 10.5358C22.5805 10.5124 22.5018 10.5045 22.4239 10.5126Z" fill="#A8A7AC"/>
<path d="M26.0068 5.89771H11.2626C10.6761 5.89771 10.1136 6.13071 9.69879 6.54547C9.28403 6.96023 9.05103 7.52277 9.05103 8.10932V28.7511C9.05103 29.3377 9.28403 29.9002 9.69879 30.315C10.1136 30.7297 10.6761 30.9627 11.2626 30.9627H26.0068C26.5933 30.9627 27.1559 30.7297 27.5706 30.315C27.9854 29.9002 28.2184 29.3377 28.2184 28.7511V8.10932C28.2184 7.52277 27.9854 6.96023 27.5706 6.54547C27.1559 6.13071 26.5933 5.89771 26.0068 5.89771ZM24.5324 14.007C24.5486 14.2472 24.4695 14.4841 24.3122 14.6663C24.1548 14.8485 23.9319 14.9612 23.6919 14.9801H13.5775C13.3375 14.9612 13.1146 14.8485 12.9573 14.6663C12.7999 14.4841 12.7208 14.2472 12.7371 14.007V10.0261C12.7206 9.78432 12.7993 9.54572 12.9563 9.36117C13.1133 9.17662 13.3362 9.06072 13.5775 9.0382H23.6919C23.9332 9.06072 24.1561 9.17662 24.3131 9.36117C24.4701 9.54572 24.5488 9.78432 24.5324 10.0261V14.007Z" fill="#A8A7AC"/>
</g>
<defs>
<clipPath id="clip0_99_190">
<rect width="19.1674" height="25.065" fill="white" transform="translate(9.05103 5.89771)"/>
</clipPath>
</defs>
</svg>
