<svg width="36" height="36" viewBox="0 0 36 36" fill="none" xmlns="http://www.w3.org/2000/svg">
<g clip-path="url(#clip0_56_517)">
<path d="M22.2193 10.5126H14.6408C14.5629 10.5045 14.4842 10.5124 14.4095 10.5358C14.3347 10.5592 14.2656 10.5976 14.2062 10.6487C14.1468 10.6998 14.0985 10.7624 14.0642 10.8328C14.03 10.9032 14.0104 10.9799 14.0068 11.0581V12.9749C14.0068 13.255 14.287 13.4614 14.6408 13.4614H22.2193C22.5732 13.4614 22.8533 13.255 22.8533 12.9749V11.0581C22.8497 10.9799 22.8302 10.9032 22.7959 10.8328C22.7616 10.7624 22.7133 10.6998 22.6539 10.6487C22.5946 10.5976 22.5254 10.5592 22.4507 10.5358C22.3759 10.5124 22.2972 10.5045 22.2193 10.5126Z" fill="#104EE9"/>
<path d="M25.8022 5.89771H11.0581C10.4715 5.89771 9.90896 6.13071 9.4942 6.54547C9.07944 6.96023 8.84644 7.52277 8.84644 8.10932V28.7511C8.84644 29.3377 9.07944 29.9002 9.4942 30.315C9.90896 30.7297 10.4715 30.9627 11.0581 30.9627H25.8022C26.3887 30.9627 26.9513 30.7297 27.366 30.315C27.7808 29.9002 28.0138 29.3377 28.0138 28.7511V8.10932C28.0138 7.52277 27.7808 6.96023 27.366 6.54547C26.9513 6.13071 26.3887 5.89771 25.8022 5.89771ZM24.3278 14.007C24.344 14.2472 24.2649 14.4841 24.1076 14.6663C23.9502 14.8485 23.7273 14.9612 23.4874 14.9801H13.3729C13.1329 14.9612 12.91 14.8485 12.7527 14.6663C12.5953 14.4841 12.5162 14.2472 12.5325 14.007V10.0261C12.516 9.78432 12.5947 9.54572 12.7517 9.36117C12.9087 9.17662 13.1316 9.06072 13.3729 9.0382H23.4874C23.7286 9.06072 23.9515 9.17662 24.1085 9.36117C24.2655 9.54572 24.3442 9.78432 24.3278 10.0261V14.007Z" fill="#104EE9"/>
</g>
<defs>
<clipPath id="clip0_56_517">
<rect width="19.1674" height="25.065" fill="white" transform="translate(8.84644 5.89771)"/>
</clipPath>
</defs>
</svg>
