<svg width="25" height="27" viewBox="0 0 25 27" fill="none" xmlns="http://www.w3.org/2000/svg">
<path d="M12.6998 17.8014C12.2574 17.7977 11.8187 17.8844 11.4087 18.0566C10.9987 18.2289 10.6254 18.4832 10.3101 18.8052C9.99484 19.1271 9.74375 19.5104 9.57119 19.9331C9.39864 20.3557 9.308 20.8095 9.30444 21.2686V25.6801C9.30442 25.7571 9.31926 25.8335 9.34809 25.9045C9.37692 25.9755 9.41915 26.0399 9.47231 26.0937C9.52546 26.1476 9.58846 26.1898 9.65759 26.218C9.72673 26.2462 9.8006 26.2598 9.87486 26.2579H15.5246C15.5989 26.2598 15.6728 26.2462 15.7419 26.218C15.811 26.1898 15.874 26.1476 15.9272 26.0937C15.9803 26.0399 16.0226 25.9755 16.0514 25.9045C16.0802 25.8335 16.0951 25.7571 16.0951 25.6801V21.2686C16.0915 20.8095 16.0009 20.3557 15.8283 19.9331C15.6558 19.5104 15.4047 19.1271 15.0894 18.8052C14.7741 18.4832 14.4008 18.2289 13.9908 18.0566C13.5808 17.8844 13.1421 17.7977 12.6998 17.8014Z" fill="#104EE9"/>
<path d="M24.0404 10.402L13.5964 0.775621C13.3486 0.549663 13.0299 0.425049 12.7 0.425049C12.3701 0.425049 12.0515 0.549663 11.8037 0.775621L1.35971 10.402C1.15294 10.5912 1.00656 10.8413 0.940035 11.1189C0.873509 11.3966 0.889985 11.6887 0.987273 11.9564C1.08456 12.2241 1.25805 12.4547 1.48469 12.6177C1.71133 12.7806 1.98038 12.8681 2.25607 12.8685H3.87224V24.8486C3.87224 25.4093 4.08687 25.947 4.46892 26.3435C4.85096 26.74 5.36913 26.9627 5.90943 26.9627H7.62567C8.17796 26.9627 8.62567 26.515 8.62567 25.9627V21.1418C8.60024 20.1177 8.92011 19.1166 9.53008 18.3112C10.14 17.5058 11.0018 16.9466 11.9667 16.7303C12.5596 16.6176 13.1693 16.6429 13.7518 16.8043C14.3342 16.9657 14.8748 17.2592 15.3348 17.6637C15.7947 18.0681 16.1623 18.5735 16.4113 19.1432C16.6603 19.713 16.7843 20.333 16.7744 20.9586V25.9627C16.7744 26.515 17.2221 26.9627 17.7744 26.9627H19.4907C20.031 26.9627 20.5491 26.74 20.9312 26.3435C21.3132 25.947 21.5278 25.4093 21.5278 24.8486V12.8685H23.144C23.4197 12.8681 23.6888 12.7806 23.9154 12.6177C24.142 12.4547 24.3155 12.2241 24.4128 11.9564C24.5101 11.6887 24.5266 11.3966 24.4601 11.1189C24.3935 10.8413 24.2471 10.5912 24.0404 10.402Z" fill="#104EE9"/>
</svg>
