<svg width="24" height="27" viewBox="0 0 24 27" fill="none" xmlns="http://www.w3.org/2000/svg">
<path d="M11.8001 17.3765C11.3578 17.3727 10.9191 17.4595 10.5091 17.6317C10.0991 17.8039 9.72575 18.0583 9.41047 18.3803C9.09518 18.7022 8.84409 19.0855 8.67154 19.5081C8.49898 19.9308 8.40834 20.3846 8.40479 20.8436V25.2551C8.40476 25.3322 8.4196 25.4085 8.44843 25.4796C8.47726 25.5506 8.5195 25.615 8.57265 25.6688C8.6258 25.7227 8.6888 25.7649 8.75793 25.7931C8.82707 25.8213 8.90094 25.8349 8.9752 25.833H14.625C14.6992 25.8349 14.7731 25.8213 14.8423 25.7931C14.9114 25.7649 14.9744 25.7227 15.0275 25.6688C15.0807 25.615 15.1229 25.5506 15.1518 25.4796C15.1806 25.4085 15.1954 25.3322 15.1954 25.2551V20.8436C15.1918 20.3846 15.1012 19.9308 14.9287 19.5081C14.7561 19.0855 14.505 18.7022 14.1897 18.3803C13.8744 18.0583 13.5011 17.8039 13.0911 17.6317C12.6811 17.4595 12.2424 17.3727 11.8001 17.3765Z" fill="#A8A7AC"/>
<path d="M23.1405 9.97693L12.6965 0.350572C12.4487 0.124614 12.13 0 11.8001 0C11.4702 0 11.1516 0.124614 10.9038 0.350572L0.459811 9.97693C0.253038 10.1662 0.106659 10.4162 0.0401329 10.6939C-0.0263937 10.9716 -0.00991766 11.2636 0.0873707 11.5314C0.184659 11.7991 0.358152 12.0297 0.58479 12.1926C0.811427 12.3555 1.08047 12.443 1.35617 12.4434H2.97234V24.4235C2.97234 24.9842 3.18697 25.522 3.56902 25.9184C3.95106 26.3149 4.46923 26.5376 5.00952 26.5376H6.25136C7.06565 26.5376 7.72577 25.8775 7.72577 25.0632V20.7167C7.70034 19.6927 8.02021 18.6915 8.63018 17.8861C9.24014 17.0807 10.1019 16.5216 11.0668 16.3052C11.6597 16.1925 12.2694 16.2178 12.8519 16.3792C13.4343 16.5406 13.9749 16.8341 14.4349 17.2386C14.8948 17.6431 15.2624 18.1484 15.5114 18.7182C15.7604 19.288 15.8844 19.908 15.8745 20.5335V25.0632C15.8745 25.8775 16.5346 26.5376 17.3489 26.5376H18.5908C19.1311 26.5376 19.6492 26.3149 20.0313 25.9184C20.4133 25.522 20.6279 24.9842 20.6279 24.4235V12.4434H22.2441C22.5198 12.443 22.7889 12.3555 23.0155 12.1926C23.2421 12.0297 23.4156 11.7991 23.5129 11.5314C23.6102 11.2636 23.6267 10.9716 23.5601 10.6939C23.4936 10.4162 23.3472 10.1662 23.1405 9.97693Z" fill="#A8A7AC"/>
</svg>
