<svg width="183" height="56" viewBox="0 0 183 56" fill="none" xmlns="http://www.w3.org/2000/svg">
<path d="M28.1311 1.85122C27.9617 2.47048 27.5463 2.92941 27.0951 3.06006L27.2979 4.28886L27.5579 5.92648C27.4215 6.00552 27.3052 6.12303 27.2271 6.27329C27.1274 6.46514 27.1071 6.67727 27.1545 6.87205C27.7202 6.94636 28.235 7.04763 28.683 7.17593C28.7081 7.14139 28.731 7.10454 28.7513 7.06547C28.8702 6.83681 28.8761 6.57933 28.7892 6.35675L30.256 4.94078L31.174 4.06551C30.912 3.6873 30.8657 3.08828 31.0964 2.50804C31.4178 1.69991 32.1547 1.23424 32.7424 1.46794C33.3302 1.70164 33.5461 2.54621 33.2248 3.35434C32.9876 3.95093 32.5238 4.36088 32.0609 4.4406L32.1259 5.68431L32.2376 8.10445L30.9139 9.38232C30.8499 10.1006 30.7123 10.9587 30.4957 11.9244C29.9608 11.6986 29.4078 11.5127 28.8422 11.3626L28.7505 11.45L28.7446 11.3372C22.3574 9.69321 14.3932 12.5611 12.3283 14.0076C12.3048 14.0657 12.2975 14.1188 12.3071 14.1659C12.2902 14.1299 12.2731 14.0944 12.2559 14.0595C12.1532 14.135 12.0677 14.2061 12.0004 14.2721C11.7504 13.5638 11.4515 12.9935 11.2096 12.532C11.0783 12.2814 10.9637 12.0628 10.8829 11.8716L9.21081 10.7933L8.85149 8.39735L8.67112 7.14187C8.21107 7.13585 7.69632 6.82602 7.35756 6.30147C6.88575 5.57091 6.93399 4.7005 7.46531 4.35736C7.99663 4.01423 8.80982 4.3283 9.28164 5.05887C9.62994 5.5982 9.69483 6.21374 9.49116 6.63709L10.5419 7.30562L12.5682 8.61239C12.4523 8.85571 12.4494 9.14897 12.5861 9.40496C12.6244 9.47672 12.6712 9.541 12.7247 9.59722L12.7256 9.60349C13.1613 9.29314 13.6596 9.0077 14.2062 8.74723C14.1895 8.68934 14.1665 8.63231 14.1369 8.57702C13.9879 8.29788 13.7098 8.13193 13.4156 8.11353L13.2244 5.99438L13.1182 4.73046C12.6593 4.69738 12.1637 4.35779 11.8564 3.81422C11.4284 3.05716 11.5277 2.1911 12.0783 1.87982C12.6289 1.56855 13.4222 1.92993 13.8502 2.687C14.1662 3.24589 14.1947 3.86418 13.9665 4.27482L14.9761 5.00402L16.9313 6.43464L16.9452 6.58854C16.9154 6.69612 16.9062 6.81132 16.9216 6.92898C16.9338 7.02262 16.9607 7.11076 16.9996 7.19139L17.0468 7.71466C17.6431 7.54986 18.2601 7.40544 18.8874 7.28144L18.6308 6.86813C18.6339 6.81509 18.6321 6.76101 18.6249 6.7064C18.6112 6.60125 18.579 6.50304 18.532 6.4146L19.1734 4.29345L19.5481 3.08168C19.1349 2.87922 18.8025 2.3788 18.721 1.75972C18.6075 0.897485 19.0238 0.131588 19.6509 0.0490382C20.278 -0.0335111 20.8783 0.598548 20.9918 1.46078C21.0756 2.09732 20.8706 2.68135 20.5053 2.9767L21.1686 4.03081L22.2771 5.81688C22.2751 5.8269 22.2734 5.83699 22.2718 5.84715C22.242 6.03621 22.2764 6.22054 22.3588 6.37803L22.2259 6.81763C22.8234 6.76816 23.4133 6.73715 23.9864 6.72461L23.9187 6.29768C23.9417 6.23962 23.9587 6.17814 23.9688 6.11386C24.0002 5.91407 23.96 5.71956 23.8672 5.55643L25.357 3.75766L26.172 2.78583C25.8696 2.43907 25.7571 1.84889 25.9219 1.24661C26.1515 0.407786 26.8322 -0.136869 27.4422 0.0300904C28.0523 0.19705 28.3607 1.0124 28.1311 1.85122Z" fill="white"/>
<path d="M12.3439 14.2454C12.3317 14.2186 12.3195 14.1921 12.3071 14.1659C12.313 14.1946 12.3252 14.2212 12.3439 14.2454Z" fill="white"/>
<path fill-rule="evenodd" clip-rule="evenodd" d="M25.04 13.6191C23.516 13.5435 22.0168 13.6521 20.6161 13.8745C22.8438 17.5454 22.4372 17.3814 20.8261 16.7318C19.8454 16.3363 18.4183 15.7609 16.8674 15.7609L16.8476 15.7609C16.8427 15.7609 16.8377 15.7609 16.8327 15.761C20.4937 20.9376 17.8131 19.5828 15.2864 18.3057C14.1926 17.7529 13.1276 17.2146 12.6183 17.2271C12.6188 17.2358 12.6199 17.2444 12.6214 17.2527L12.61 17.2273C12.5601 17.2291 12.5156 17.2364 12.4772 17.2497C12.264 17.2497 11.9371 17.2497 11.5418 17.248C11.542 17.2483 11.5421 17.2486 11.5422 17.2489C11.5422 17.249 11.5422 17.2492 11.5422 17.2493C11.5423 17.2495 11.5423 17.2496 11.5423 17.2497C11.4923 17.2519 11.4197 17.2547 11.3277 17.2583C10.5282 17.2895 8.25926 17.3781 6.57321 17.5896C5.75066 17.7892 5.05201 17.958 4.54985 18.0635C4.52876 18.0679 4.51872 18.0409 4.53549 18.0273C6.09122 16.7733 8.24455 15.4644 12.0897 15.2702C12.0862 15.1319 12.0862 14.9836 12.0862 14.8161V14.8161C16.7816 11.2086 28.0621 10.8078 30.5243 12.6688C30.7534 14.0431 30.6102 14.6729 30.5243 14.8161C30.0676 14.624 29.6048 14.4576 29.138 14.3148C29.1431 14.3179 29.1481 14.321 29.1532 14.324C29.1596 14.3279 29.1659 14.3318 29.1723 14.3357C29.3191 14.4058 29.4349 14.4798 29.523 14.5559C29.4957 14.5415 29.4678 14.5272 29.4393 14.5131C29.4964 14.5538 29.5515 14.5949 29.605 14.6362C29.581 14.6093 29.5537 14.5825 29.523 14.5559C32.0078 15.8681 29.7689 18.4896 28.8456 19.5C28.8391 19.5071 28.8298 19.5086 28.8218 19.5032C28.7221 19.436 28.6171 19.2528 28.465 18.9873C28.0135 18.1995 27.147 16.6876 24.7747 15.338C24.7568 15.3279 24.7639 15.3 24.7844 15.2989C26.3453 15.2194 26.8323 15.5001 27.2021 15.7132C27.4048 15.83 27.5723 15.9265 27.8619 15.9324C28.1479 15.5816 27.9181 14.9733 24.9986 13.814C24.9986 13.7348 25.0129 13.6706 25.04 13.6191ZM16.4349 13.308C16.444 13.3034 16.4546 13.3024 16.4644 13.3052L16.9809 13.4499C16.9848 13.451 16.9885 13.4527 16.9919 13.4548L17.3343 13.6727C17.3569 13.6871 17.3599 13.719 17.3404 13.7374L17.0454 14.0161C17.0425 14.0189 17.0392 14.0212 17.0356 14.023L16.5558 14.2628C16.5466 14.2674 16.5361 14.2684 16.5262 14.2656L16.0098 14.1209C16.0086 14.1206 16.0075 14.1202 16.0064 14.1198C16.0059 14.1196 16.0055 14.1194 16.005 14.1192C16.0044 14.1189 16.0038 14.1187 16.0032 14.1184C16.0028 14.1182 16.0024 14.118 16.0019 14.1178C16.0017 14.1177 16.0015 14.1175 16.0013 14.1174C16.0004 14.117 15.9996 14.1165 15.9988 14.116L15.6564 13.8981C15.6338 13.8837 15.6307 13.8518 15.6502 13.8334L15.9452 13.5547C15.9467 13.5533 15.9482 13.552 15.9499 13.5509C15.9515 13.5497 15.9533 13.5487 15.9551 13.5478L16.4349 13.308ZM21.2034 12.225C21.1936 12.2221 21.1831 12.2229 21.1739 12.2273L20.6895 12.4576C20.6858 12.4594 20.6825 12.4616 20.6795 12.4643L20.3791 12.7372C20.3592 12.7553 20.3616 12.7872 20.384 12.802L20.722 13.0266C20.7236 13.0276 20.7252 13.0285 20.7269 13.0293C20.728 13.0299 20.7292 13.0304 20.7304 13.0309C20.7309 13.031 20.7313 13.0312 20.7318 13.0313C20.7321 13.0314 20.7325 13.0316 20.7329 13.0317L21.2465 13.1865C21.2563 13.1895 21.2668 13.1887 21.2761 13.1843L21.7604 12.9539C21.7641 12.9522 21.7674 12.9499 21.7704 12.9472L22.0708 12.6743C22.0907 12.6563 22.0883 12.6244 22.0659 12.6095L21.7279 12.385C21.7245 12.3828 21.7208 12.381 21.717 12.3799L21.2034 12.225ZM26.7643 12.1308C26.7742 12.1281 26.7847 12.1291 26.7938 12.1338L27.2727 12.3754C27.2763 12.3772 27.2796 12.3795 27.2825 12.3823L27.5765 12.6621C27.5959 12.6806 27.5927 12.7125 27.57 12.7268L27.2268 12.9434C27.2234 12.9455 27.2197 12.9472 27.2158 12.9483L26.6988 13.091C26.6889 13.0938 26.6784 13.0927 26.6693 13.0881L26.1904 12.8465C26.1897 12.8461 26.1891 12.8458 26.1884 12.8454C26.187 12.8446 26.1856 12.8437 26.1843 12.8427C26.183 12.8417 26.1818 12.8407 26.1806 12.8395L25.8866 12.5597C25.8672 12.5412 25.8704 12.5094 25.8931 12.4951L26.2363 12.2785C26.2373 12.2778 26.2384 12.2772 26.2396 12.2766C26.2402 12.2763 26.2408 12.276 26.2414 12.2757C26.2419 12.2755 26.2423 12.2753 26.2428 12.2751C26.2442 12.2745 26.2457 12.274 26.2473 12.2736L26.7643 12.1308Z" fill="white"/>
<path d="M12.6588 17.3356C12.6461 17.3075 12.6336 17.2799 12.6214 17.2527C12.627 17.2827 12.6394 17.3104 12.6588 17.3356Z" fill="white"/>
<path d="M37.196 22.3868C38.2091 21.7564 38.4635 21.5981 34.8909 22.1223C34.8287 22.1314 34.7702 22.0828 34.7725 22.02C34.8387 20.2211 36.3966 19.6094 37.7254 19.2955C37.7721 19.2845 37.8068 19.242 37.7934 19.1959C37.5108 18.2256 32.219 17.7588 31.5199 19.5552C31.5108 19.5786 31.5114 19.6046 31.5215 19.6276C31.64 19.8988 31.9107 20.3244 32.2738 20.8347C32.2937 20.8627 32.3265 20.8791 32.3608 20.8769C32.6774 20.8568 32.878 20.7515 33.0566 20.6578C33.2066 20.5791 33.3412 20.5085 33.5161 20.5032C33.5753 20.5014 33.6167 20.5574 33.6011 20.6145C33.5303 20.8738 33.3763 21.1112 33.2184 21.3548L33.2184 21.3549C33.1433 21.4707 33.0673 21.5879 32.9989 21.7096C32.979 21.7448 32.9827 21.7884 33.0074 21.8204C33.5951 22.5826 34.2791 23.4177 34.9284 24.172C34.976 24.2273 35.0646 24.2168 35.1026 24.1546C35.5603 23.4046 36.5381 22.7962 37.196 22.3868Z" fill="white"/>
<path d="M0.0018518 29.1545C-0.00727152 29.1843 0.0187084 29.213 0.049255 29.207C0.599205 29.0988 1.15622 29.0102 1.71953 28.9421C1.15521 30.7276 0.86606 32.8581 0.86606 35.3947C0.86606 38.6312 1.53734 41.7109 2.74828 44.5021C2.76827 44.5482 2.83703 44.5245 2.82539 44.4756C2.36796 42.5538 2.1258 40.5486 2.1258 38.4868C2.1258 34.2174 3.16412 30.1905 5.00201 26.6449C5.0176 26.6149 4.99229 26.5798 4.95881 26.585C4.21701 26.7014 3.46341 26.7821 2.69979 26.8254C3.75491 23.8749 5.20507 21.1123 6.98655 18.6012C7.01465 18.5616 6.96365 18.5146 6.92692 18.5464C3.7119 21.3275 1.27882 24.9883 0.0018518 29.1545Z" fill="white"/>
<path d="M8.36713 23.4774C8.36588 23.4369 8.3133 23.423 8.29211 23.4575C7.24315 25.1678 6.53137 27.0674 6.20026 29.054C5.79369 31.4933 5.97266 33.9941 6.72247 36.3509C7.05891 37.4084 7.50597 38.4234 8.054 39.3799C8.07745 39.4209 8.13991 39.396 8.12974 39.3499C7.8896 38.2619 7.76301 37.1314 7.76301 35.9713C7.76301 32.3702 8.98291 29.0535 11.0327 26.4104C11.0583 26.3775 11.0248 26.3318 10.9859 26.3469C9.91348 26.7639 8.89426 27.3858 7.95989 28.301C7.9305 28.3298 7.88088 28.3027 7.8893 28.2624C8.27053 26.4397 8.40986 24.8597 8.36713 23.4774Z" fill="white"/>
<path d="M17.9736 47.015C17.8655 46.9084 17.7625 46.8068 17.6661 46.7104C17.4645 46.5088 17.2444 46.2895 17.011 46.0569L17.0099 46.0558C15.2855 44.3376 12.8336 41.8945 11.741 40.5151C11.7185 40.4866 11.6748 40.4976 11.6721 40.5338C11.5755 41.8257 13.1949 43.925 14.2457 45.2871C15.8091 47.3138 16.1135 47.7084 7.63275 41.3825C7.60492 41.3618 7.56195 41.3807 7.56422 41.4153C7.7301 43.9538 10.3792 45.7863 13.2645 47.7821C16.3956 49.948 19.8048 52.3063 20.6211 55.9679C20.6293 56.0046 20.6794 56.0118 20.6981 55.9792C22.9987 51.9698 19.7774 48.7935 17.9736 47.015Z" fill="white"/>
<path d="M35.4529 46.582C35.3963 46.678 35.2456 46.6532 35.2209 46.5446C34.4645 43.2265 34.3434 43.5592 33.9459 44.6508C33.6372 45.4983 33.1619 46.8034 32.0933 47.2121C32.0274 47.2373 31.9552 47.1965 31.9353 47.1288C31.6475 46.1511 30.9549 45.4263 30.3155 44.7572C29.3153 43.7104 28.4452 42.7999 29.4589 41.2707C29.6402 40.9973 30.1976 40.8423 30.9187 40.6419C31.8976 40.3698 33.1781 40.0138 34.2289 39.1639C34.2899 39.1145 34.3821 39.131 34.4363 39.1877C34.6242 39.3844 34.9648 39.5071 35.3466 39.6446C36.785 40.1629 38.808 40.8917 35.4529 46.582Z" fill="white"/>
<path d="M37.8552 35.8327L37.8552 35.8324L37.8552 35.8323L37.8551 35.832L37.8551 35.8316L37.855 35.8313C37.855 35.8311 37.855 35.831 37.855 35.8307L37.855 35.8303L37.855 35.83C37.855 35.7785 37.8503 33.6724 37.4709 33.2136C37.4517 33.1904 37.4173 33.2015 37.4089 33.2305C37.2371 33.8229 36.6835 34.401 36.133 34.976C35.6138 35.5184 35.0972 36.0579 34.9061 36.604C34.5625 38.2073 34.992 38.7799 36.0799 38.6367C36.9026 38.5285 38.0255 37.2354 37.8553 35.8334L37.8552 35.8327Z" fill="white"/>
<path fill-rule="evenodd" clip-rule="evenodd" d="M23.3591 53.4346C23.3491 53.4785 23.408 53.5064 23.4343 53.4699C26.7068 48.9159 22.9152 44.4315 19.4774 40.3654L19.477 40.365L19.4763 40.3641L19.4761 40.3638L19.4756 40.3632C19.1586 39.9883 18.8447 39.617 18.5396 39.2495C18.2461 38.7966 17.9179 38.3918 17.5937 37.9919C16.2283 36.3076 14.9336 34.7106 16.5972 29.9771C16.6853 29.8008 16.7819 29.6195 16.8877 29.4327C16.9232 30.597 17.0279 31.7315 17.0966 32.2807C17.0966 33.6248 18.5854 36.0886 20.5323 35.9741L20.4876 35.9107C19.8014 34.937 19.4163 34.3907 19.2904 33.5321C19.3212 33.5569 19.3523 33.5818 19.3838 33.6069C19.4038 33.6229 19.424 33.6389 19.4443 33.655C21.1534 34.9408 22.8626 34.3115 24.3696 33.7566C25.6141 33.2984 26.7206 32.891 27.5753 33.655L27.5763 33.655L27.5762 33.6559C27.5026 33.6553 27.4273 33.655 27.3504 33.655C27.3492 33.655 27.3482 33.655 27.3471 33.6551C27.3465 33.6552 27.3459 33.6552 27.3453 33.6553L27.3444 33.6554L27.3439 33.6555C27.3434 33.6556 27.343 33.6557 27.3425 33.6557C26.3217 33.8555 24.2987 34.7816 24.5598 36.0749C24.5645 36.0978 24.5886 36.1118 24.6111 36.1055C24.9754 36.0036 25.2987 35.9129 25.5845 35.8327L25.5855 35.8324L25.5855 35.8324L25.5856 35.8323L25.5862 35.8322C26.9457 35.4507 27.4527 35.3084 27.4644 35.3413C27.4713 35.3608 27.3029 35.4424 27.0345 35.5724C26.128 36.0115 24.08 37.0035 23.7835 38.0294C23.7751 38.0587 23.8019 38.0843 23.8312 38.0761C24.1823 37.9782 24.526 37.7808 24.8982 37.5672C25.321 37.3245 25.7805 37.0608 26.3291 36.8978C26.3692 36.8858 26.3975 36.9343 26.3681 36.9642C25.6144 37.7299 24.925 38.493 24.4458 39.0328C24.4175 39.0646 24.4535 39.1119 24.4936 39.0976C28.8786 37.5422 28.7301 37.6187 27.8516 38.0711C27.1813 38.4163 26.0859 38.9804 26.2553 39.2054C26.2565 39.2071 26.2576 39.2086 26.2586 39.2102L26.259 39.2108L26.2593 39.2112L26.2596 39.2118L26.2599 39.2124L26.2602 39.2128L26.2603 39.2131C26.5935 39.8438 31.6684 41.0625 33.8134 37.8117C33.8148 37.8095 33.8161 37.807 33.8172 37.8044C33.8177 37.8031 33.8182 37.8017 33.8186 37.8003C34.3984 35.7914 32.8885 35.1867 31.5239 34.6402L31.5239 34.6402C31.1083 34.4738 30.7062 34.3128 30.3807 34.1191C30.2558 33.9113 30.1112 33.6089 30.1235 33.2542L30.1235 33.2531C30.1239 33.253 30.1243 33.2529 30.1248 33.2528C30.1252 33.2527 30.1256 33.2525 30.1261 33.2524L30.1265 33.2523L30.127 33.2521C30.1275 33.2519 30.128 33.2518 30.1285 33.2516L30.129 33.2513C30.1293 33.2512 30.1297 33.2511 30.13 33.2509C30.1305 33.2507 30.1311 33.2504 30.1316 33.2502C30.7084 32.9684 31.9547 33.0537 33.2037 33.1393C36.3353 33.3537 39.4838 33.5692 32.139 28.0031C32.132 27.9978 32.1262 27.9895 32.1236 27.9811C32.1021 27.9095 32.0781 27.841 32.0518 27.7753C31.9866 27.4687 31.9079 27.1472 31.8153 26.8101C31.901 26.8893 31.9585 26.9872 32.0195 27.0912C32.1172 27.2578 32.2242 27.44 32.4712 27.5853C32.5954 27.6331 32.8152 27.6209 33.0722 27.6066C33.3768 27.5897 33.7336 27.5699 34.0451 27.6436C34.2607 27.7544 34.4426 27.858 34.5863 27.9532L34.5881 27.9554L34.5898 27.9575L34.5898 27.9566L34.5898 27.9556C34.8303 28.1155 34.9621 28.2517 34.9621 28.3583C34.4407 29.2968 34.6551 29.4045 35.238 29.6973L35.2381 29.6973L35.2381 29.6973L35.2389 29.6977C35.2959 29.7264 35.3565 29.7568 35.4202 29.7899C36.2434 27.782 33.7434 24.3942 31.9889 22.3322C31.898 22.2176 31.7992 22.0917 31.6967 21.9613L31.6967 21.9613L31.6966 21.9611L31.6965 21.9609L31.6964 21.9608L31.6963 21.9607L31.6963 21.9607L31.6962 21.9606C31.2397 21.3792 30.7124 20.7075 30.5038 20.5483C30.4981 20.5439 30.4922 20.5416 30.4851 20.5417C30.3492 20.5442 30.1125 20.8622 29.8456 21.2209C29.5979 21.5536 29.3242 21.9213 29.0808 22.1046C29.0801 22.1052 29.0794 22.1057 29.0787 22.1063L29.0781 22.1068L29.0713 22.1079L29.065 22.109C28.2655 20.8777 22.0607 18.3663 20.3605 18.3663C20.9704 18.8726 21.7422 19.2772 22.4546 19.6507C23.5147 20.2064 24.4434 20.6932 24.5119 21.3439C23.5575 21.449 22.7892 21.5645 22.1813 21.6873C21.0879 21.8288 19.6046 21.5358 18.1024 21.239C15.6672 20.758 13.1825 20.2671 12.2294 21.6015C11.0269 22.9472 12.1149 24.0065 12.5157 24.3787C12.5746 24.4334 12.573 24.4276 12.5547 24.3592C12.5114 24.1983 12.375 23.6911 12.7136 22.8106C12.7152 22.8063 12.7175 22.8023 12.7205 22.7989C13.2317 22.2119 15.4715 22.825 18.0201 23.5226L18.159 23.5606C18.2059 23.5734 18.2529 23.5863 18.3 23.5991C18.2994 23.666 18.2991 23.735 18.2991 23.8061C14.0365 28.2952 13.6969 32.1397 14.2268 34.8725C13.8277 34.5055 12.5881 33.0325 12.7373 28.9949C12.7389 28.9514 12.678 28.9383 12.6575 28.9767C9.57078 34.751 13.6442 38.7511 17.6544 42.689C21.0067 45.9809 24.3147 49.2293 23.3591 53.4346ZM25.6571 27.6426C25.6571 27.6409 25.6571 27.6391 25.657 27.6374C25.7403 27.612 25.7549 27.4804 25.8178 26.9122L25.8267 26.8321L25.8317 26.8277L25.835 26.8249L25.8392 26.8213C25.8445 26.8167 25.8499 26.812 25.8552 26.8073L25.8581 26.8068C25.8589 26.8067 25.8596 26.8066 25.8604 26.8065L25.8621 26.8062C26.0076 26.853 26.123 26.9182 26.2387 27.0026C31.1062 31.1824 26.9671 29.0502 26.3238 28.6583C26.295 28.6408 26.2589 28.6619 26.2611 28.6955C26.2717 28.8541 26.3126 29.0376 26.379 29.238C24.1997 30.1122 22.5419 29.5463 21.8266 29.3022L21.8265 29.3022L21.8264 29.3021C21.7369 29.2716 21.6622 29.2461 21.6031 29.2291C21.8498 28.9682 22.077 28.6617 22.077 28.5481C22.0534 28.4299 21.5612 28.3507 21.1485 28.3589C21.7831 27.2035 23.3461 27.4077 24.5367 27.5632C24.9868 27.622 25.3838 27.6738 25.6571 27.6426Z" fill="white"/>
<path d="M67.8782 22.8786C67.1193 21.9469 65.716 21.8901 64.8842 22.7573L64.6564 22.9947C64.2992 23.3671 64.0998 23.8631 64.0998 24.3791V26C64.0998 27.1046 63.1919 28 62.0873 28C60.9827 28 60.0748 27.1046 60.0748 26V12.5C60.0748 11.3954 60.9827 10.5 62.0873 10.5C63.1919 10.5 64.0998 11.3954 64.0998 12.5V13.6583C64.0998 15.466 66.3076 16.3461 67.5512 15.0343L71.3613 11.0153C71.6732 10.6863 72.1066 10.5 72.5599 10.5C74.0023 10.5 74.7516 12.2194 73.7696 13.276L70.2681 17.0431C69.596 17.7662 69.552 18.8715 70.1646 19.6457L74.3911 24.9874C75.3555 26.2062 74.4874 28 72.9333 28C72.3742 28 71.8449 27.7485 71.4919 27.315L67.8782 22.8786ZM81.0807 12.5C81.0807 11.3954 81.9761 10.5 83.0807 10.5H83.1307C84.2352 10.5 85.1307 11.3954 85.1307 12.5V26C85.1307 27.1046 84.2352 28 83.1307 28H83.0807C81.9761 28 81.0807 27.1046 81.0807 26V12.5ZM105.834 10.5C106.938 10.5 107.834 11.3954 107.834 12.5V26C107.834 27.1046 106.938 28 105.834 28H105.454C104.856 28 104.289 27.7319 103.909 27.2692L99.3294 21.6928C98.1377 20.2416 95.7838 21.0842 95.7838 22.962V26C95.7838 27.1046 94.8884 28 93.7838 28C92.6792 28 91.7838 27.1046 91.7838 26V12.5C91.7838 11.3954 92.6792 10.5 93.7838 10.5H94.1865C94.7861 10.5 95.3541 10.769 95.7339 11.2329L100.286 16.7926C101.477 18.2466 103.834 17.4048 103.834 15.5256V12.5C103.834 11.3954 104.729 10.5 105.834 10.5ZM126.299 20.825C126.299 19.8033 127.127 18.975 128.149 18.975C129.171 18.975 129.999 19.8033 129.999 20.825V25.0785C129.999 25.706 129.711 26.3084 129.174 26.6329C128.427 27.084 127.602 27.448 126.699 27.725C125.449 28.1083 124.191 28.3 122.924 28.3C121.108 28.3 119.474 27.9167 118.024 27.15C116.574 26.3667 115.433 25.2917 114.599 23.925C113.783 22.5417 113.374 20.9833 113.374 19.25C113.374 17.5167 113.783 15.9667 114.599 14.6C115.433 13.2167 116.583 12.1417 118.049 11.375C119.516 10.5917 121.166 10.2 122.999 10.2C124.533 10.2 125.924 10.4583 127.174 10.975C127.858 11.2575 128.481 11.6097 129.045 12.0317C129.827 12.6171 129.754 13.7511 129.036 14.4138C128.309 15.0855 127.191 15.0134 126.344 14.5007C125.407 13.9336 124.359 13.65 123.199 13.65C122.083 13.65 121.091 13.8833 120.224 14.35C119.358 14.8167 118.683 15.475 118.199 16.325C117.716 17.175 117.474 18.15 117.474 19.25C117.474 20.3333 117.716 21.3 118.199 22.15C118.683 23 119.349 23.6667 120.199 24.15C121.066 24.6167 122.049 24.85 123.149 24.85C123.877 24.85 124.558 24.7528 125.195 24.5585C125.9 24.3433 126.299 23.6398 126.299 22.9025V20.825ZM137.486 9.25C138.186 9.25 138.761 9.475 139.211 9.925C139.661 10.3583 139.886 10.9333 139.886 11.65C139.886 11.9833 139.845 12.3167 139.761 12.65C139.678 12.9833 139.503 13.4833 139.236 14.15L138.101 16.9685C137.911 17.4407 137.453 17.75 136.944 17.75C136.121 17.75 135.524 16.9683 135.74 16.1748L136.046 15.051C136.242 14.332 135.811 13.6037 135.411 12.975C135.178 12.6083 135.061 12.1667 135.061 11.65C135.061 10.9333 135.286 10.3583 135.736 9.925C136.203 9.475 136.786 9.25 137.486 9.25ZM151.298 28.3C149.915 28.3 148.573 28.1167 147.273 27.75C146.524 27.5262 145.86 27.2654 145.281 26.9677C144.6 26.6172 144.396 25.781 144.711 25.0823C145.142 24.1257 146.356 23.8096 147.323 24.2169C147.61 24.3379 147.91 24.4489 148.223 24.55C149.257 24.8833 150.29 25.05 151.323 25.05C152.473 25.05 153.323 24.8833 153.873 24.55C154.423 24.2 154.698 23.7417 154.698 23.175C154.698 22.7583 154.532 22.4167 154.198 22.15C153.882 21.8667 153.465 21.6417 152.948 21.475C152.448 21.3083 151.765 21.125 150.898 20.925C149.565 20.6083 148.473 20.2917 147.623 19.975C146.773 19.6583 146.04 19.15 145.423 18.45C144.823 17.75 144.523 16.8167 144.523 15.65C144.523 14.6333 144.798 13.7167 145.348 12.9C145.898 12.0667 146.723 11.4083 147.823 10.925C148.94 10.4417 150.298 10.2 151.898 10.2C153.015 10.2 154.107 10.3333 155.173 10.6C155.725 10.7378 156.241 10.9068 156.721 11.107C157.473 11.4207 157.749 12.301 157.443 13.056C157.061 13.9936 155.945 14.3663 154.994 14.0194C153.954 13.6398 152.914 13.45 151.873 13.45C150.74 13.45 149.898 13.6333 149.348 14C148.815 14.3667 148.548 14.85 148.548 15.45C148.548 16.05 148.857 16.5 149.473 16.8C150.107 17.0833 151.065 17.3667 152.348 17.65C153.682 17.9667 154.773 18.2833 155.623 18.6C156.473 18.9167 157.198 19.4167 157.798 20.1C158.415 20.7833 158.723 21.7083 158.723 22.875C158.723 23.875 158.44 24.7917 157.873 25.625C157.323 26.4417 156.49 27.0917 155.373 27.575C154.257 28.0583 152.898 28.3 151.298 28.3ZM65.8248 49.3C64.4415 49.3 63.0998 49.1167 61.7998 48.75C61.0505 48.5262 60.3864 48.2654 59.8075 47.9677C59.126 47.6172 58.9225 46.781 59.2375 46.0823C59.6687 45.1257 60.8819 44.8096 61.849 45.2169C62.1362 45.3379 62.4365 45.4489 62.7498 45.55C63.7831 45.8833 64.8165 46.05 65.8498 46.05C66.9998 46.05 67.8498 45.8833 68.3998 45.55C68.9498 45.2 69.2248 44.7417 69.2248 44.175C69.2248 43.7583 69.0581 43.4167 68.7248 43.15C68.4081 42.8667 67.9915 42.6417 67.4748 42.475C66.9748 42.3083 66.2915 42.125 65.4248 41.925C64.0915 41.6083 62.9998 41.2917 62.1498 40.975C61.2998 40.6583 60.5665 40.15 59.9498 39.45C59.3498 38.75 59.0498 37.8167 59.0498 36.65C59.0498 35.6333 59.3248 34.7167 59.8748 33.9C60.4248 33.0667 61.2498 32.4083 62.3498 31.925C63.4665 31.4417 64.8248 31.2 66.4248 31.2C67.5415 31.2 68.6331 31.3333 69.6998 31.6C70.2512 31.7378 70.7669 31.9068 71.247 32.107C71.9992 32.4207 72.2758 33.301 71.9689 34.056C71.5878 34.9936 70.4716 35.3663 69.5208 35.0194C68.4805 34.6398 67.4401 34.45 66.3998 34.45C65.2665 34.45 64.4248 34.6333 63.8748 35C63.3415 35.3667 63.0748 35.85 63.0748 36.45C63.0748 37.05 63.3831 37.5 63.9998 37.8C64.6331 38.0833 65.5915 38.3667 66.8748 38.65C68.2081 38.9667 69.2998 39.2833 70.1498 39.6C70.9998 39.9167 71.7248 40.4167 72.3248 41.1C72.9415 41.7833 73.2498 42.7083 73.2498 43.875C73.2498 44.875 72.9665 45.7917 72.3998 46.625C71.8498 47.4417 71.0165 48.0917 69.8998 48.575C68.7831 49.0583 67.4248 49.3 65.8248 49.3ZM86.8922 49.3C85.1089 49.3 83.4922 48.9167 82.0422 48.15C80.6089 47.3667 79.4755 46.2917 78.6422 44.925C77.8255 43.5417 77.4172 41.9833 77.4172 40.25C77.4172 38.5167 77.8255 36.9667 78.6422 35.6C79.4755 34.2167 80.6089 33.1417 82.0422 32.375C83.4922 31.5917 85.1172 31.2 86.9172 31.2C88.4339 31.2 89.8005 31.4667 91.0172 32C91.7093 32.2993 92.3384 32.6721 92.9046 33.1183C93.651 33.7066 93.5691 34.8059 92.8708 35.4505C92.1303 36.1341 90.9861 36.0314 90.1342 35.493C89.2451 34.931 88.2394 34.65 87.1172 34.65C86.0339 34.65 85.0672 34.8917 84.2172 35.375C83.3672 35.8417 82.7005 36.5 82.2172 37.35C81.7505 38.2 81.5172 39.1667 81.5172 40.25C81.5172 41.3333 81.7505 42.3 82.2172 43.15C82.7005 44 83.3672 44.6667 84.2172 45.15C85.0672 45.6167 86.0339 45.85 87.1172 45.85C88.2384 45.85 89.2433 45.5661 90.132 44.9982C90.9853 44.4529 92.1358 44.346 92.8799 45.0329C93.5747 45.6743 93.6612 46.7667 92.9238 47.3585C92.3526 47.8168 91.7171 48.1973 91.0172 48.5C89.7839 49.0333 88.4089 49.3 86.8922 49.3ZM113.402 31.5C114.507 31.5 115.402 32.3954 115.402 33.5V47C115.402 48.1046 114.507 49 113.402 49H113.352C112.248 49 111.352 48.1046 111.352 47V43.825C111.352 42.7204 110.457 41.825 109.352 41.825H105.402C104.298 41.825 103.402 42.7204 103.402 43.825V47C103.402 48.1046 102.507 49 101.402 49H101.352C100.248 49 99.3521 48.1046 99.3521 47V33.5C99.3521 32.3954 100.248 31.5 101.352 31.5H101.402C102.507 31.5 103.402 32.3954 103.402 33.5V36.4C103.402 37.5046 104.298 38.4 105.402 38.4H109.352C110.457 38.4 111.352 37.5046 111.352 36.4V33.5C111.352 32.3954 112.248 31.5 113.352 31.5H113.402ZM130.518 49.3C128.701 49.3 127.059 48.9083 125.593 48.125C124.143 47.3417 123.001 46.2667 122.168 44.9C121.351 43.5167 120.943 41.9667 120.943 40.25C120.943 38.5333 121.351 36.9917 122.168 35.625C123.001 34.2417 124.143 33.1583 125.593 32.375C127.059 31.5917 128.701 31.2 130.518 31.2C132.334 31.2 133.968 31.5917 135.418 32.375C136.868 33.1583 138.009 34.2417 138.843 35.625C139.676 36.9917 140.093 38.5333 140.093 40.25C140.093 41.9667 139.676 43.5167 138.843 44.9C138.009 46.2667 136.868 47.3417 135.418 48.125C133.968 48.9083 132.334 49.3 130.518 49.3ZM130.518 45.85C131.551 45.85 132.484 45.6167 133.318 45.15C134.151 44.6667 134.801 44 135.268 43.15C135.751 42.3 135.993 41.3333 135.993 40.25C135.993 39.1667 135.751 38.2 135.268 37.35C134.801 36.5 134.151 35.8417 133.318 35.375C132.484 34.8917 131.551 34.65 130.518 34.65C129.484 34.65 128.551 34.8917 127.718 35.375C126.884 35.8417 126.226 36.5 125.743 37.35C125.276 38.2 125.043 39.1667 125.043 40.25C125.043 41.3333 125.276 42.3 125.743 43.15C126.226 44 126.884 44.6667 127.718 45.15C128.551 45.6167 129.484 45.85 130.518 45.85ZM154.111 49.3C152.295 49.3 150.653 48.9083 149.186 48.125C147.736 47.3417 146.595 46.2667 145.761 44.9C144.945 43.5167 144.536 41.9667 144.536 40.25C144.536 38.5333 144.945 36.9917 145.761 35.625C146.595 34.2417 147.736 33.1583 149.186 32.375C150.653 31.5917 152.295 31.2 154.111 31.2C155.928 31.2 157.561 31.5917 159.011 32.375C160.461 33.1583 161.603 34.2417 162.436 35.625C163.27 36.9917 163.686 38.5333 163.686 40.25C163.686 41.9667 163.27 43.5167 162.436 44.9C161.603 46.2667 160.461 47.3417 159.011 48.125C157.561 48.9083 155.928 49.3 154.111 49.3ZM154.111 45.85C155.145 45.85 156.078 45.6167 156.911 45.15C157.745 44.6667 158.395 44 158.861 43.15C159.345 42.3 159.586 41.3333 159.586 40.25C159.586 39.1667 159.345 38.2 158.861 37.35C158.395 36.5 157.745 35.8417 156.911 35.375C156.078 34.8917 155.145 34.65 154.111 34.65C153.078 34.65 152.145 34.8917 151.311 35.375C150.478 35.8417 149.82 36.5 149.336 37.35C148.87 38.2 148.636 39.1667 148.636 40.25C148.636 41.3333 148.87 42.3 149.336 43.15C149.82 44 150.478 44.6667 151.311 45.15C152.145 45.6167 153.078 45.85 154.111 45.85ZM169.23 33.5C169.23 32.3954 170.126 31.5 171.23 31.5H171.28C172.385 31.5 173.28 32.3954 173.28 33.5V43.7C173.28 44.8046 174.176 45.7 175.28 45.7H180.405C181.316 45.7 182.055 46.4387 182.055 47.35C182.055 48.2613 181.316 49 180.405 49H171.23C170.126 49 169.23 48.1046 169.23 47V33.5Z" fill="white"/>
</svg>
