<svg width="36" height="36" viewBox="0 0 36 36" fill="none" xmlns="http://www.w3.org/2000/svg">
<g clip-path="url(#clip0_56_507)">
<path d="M19.0971 10.3209H9.26768C8.1044 10.3209 7.16138 11.3111 7.16138 12.5325V21.379C7.16138 22.6005 8.1044 23.5906 9.26768 23.5906H19.0971C20.2604 23.5906 21.2034 22.6005 21.2034 21.379V12.5325C21.2034 11.3111 20.2604 10.3209 19.0971 10.3209Z" fill="#104EE9"/>
<path fill-rule="evenodd" clip-rule="evenodd" d="M5.05488 26.5394H7.86329C8.0495 26.5394 8.22808 26.6171 8.35975 26.7554C8.49142 26.8936 8.56539 27.0811 8.56539 27.2766V28.0138C8.56539 28.6004 8.34348 29.1629 7.94847 29.5777C7.55346 29.9924 7.01771 30.2255 6.45909 30.2255C5.90046 30.2255 5.36471 29.9924 4.96971 29.5777C4.5747 29.1629 4.35278 28.6004 4.35278 28.0138V27.2766C4.35278 27.0811 4.42675 26.8936 4.55842 26.7554C4.69009 26.6171 4.86868 26.5394 5.05488 26.5394ZM27.5223 26.5394H30.3307C30.5169 26.5394 30.6955 26.6171 30.8272 26.7554C30.9588 26.8936 31.0328 27.0811 31.0328 27.2766V28.0138C31.0328 28.6004 30.8109 29.1629 30.4159 29.5777C30.0209 29.9924 29.4851 30.2255 28.9265 30.2255C28.3679 30.2255 27.8321 29.9924 27.4371 29.5777C27.0421 29.1629 26.8202 28.6004 26.8202 28.0138V27.2766C26.8202 27.0811 26.8942 26.8936 27.0258 26.7554C27.1575 26.6171 27.3361 26.5394 27.5223 26.5394Z" fill="#104EE9"/>
<path d="M28.9267 12.5676V12.4974C28.9267 12.1096 28.6123 11.7953 28.2246 11.7953C27.8368 11.7953 27.5225 12.1096 27.5225 12.4974V12.5676C27.5225 12.9554 27.8368 13.2697 28.2246 13.2697C28.6123 13.2697 28.9267 12.9554 28.9267 12.5676Z" fill="#104EE9"/>
<path d="M23.8152 5.89771H5.05503C4.49641 5.89771 3.96066 6.13071 3.56565 6.54547C3.17064 6.96023 2.94873 7.52277 2.94873 8.10932V25.8023C2.94873 26.3888 3.17064 26.9514 3.56565 27.3661C3.96066 27.7809 4.49641 28.0139 5.05503 28.0139H23.8152V5.89771ZM20.5013 25.0651H7.86344C7.30481 25.0651 6.76907 24.8321 6.37406 24.4173C5.97905 24.0025 5.75714 23.44 5.75714 22.8535V11.0581C5.75714 10.4716 5.97905 9.90906 6.37406 9.4943C6.76907 9.07954 7.30481 8.84653 7.86344 8.84653H20.5013C21.0599 8.84653 21.5956 9.07954 21.9906 9.4943C22.3857 9.90906 22.6076 10.4716 22.6076 11.0581V22.8535C22.6076 23.44 22.3857 24.0025 21.9906 24.4173C21.5956 24.8321 21.0599 25.0651 20.5013 25.0651Z" fill="#104EE9"/>
<path d="M30.3308 5.89771H25.2195V28.0139H30.3308C30.8894 28.0139 31.4252 27.7809 31.8202 27.3661C32.2152 26.9514 32.4371 26.3888 32.4371 25.8023V8.10932C32.4371 7.52277 32.2152 6.96023 31.8202 6.54547C31.4252 6.13071 30.8894 5.89771 30.3308 5.89771ZM29.6287 24.3279H26.8203C26.6341 24.3279 26.4555 24.2502 26.3238 24.1119C26.1921 23.9737 26.1182 23.7862 26.1182 23.5907C26.1182 23.3951 26.1921 23.2076 26.3238 23.0694C26.4555 22.9311 26.6341 22.8535 26.8203 22.8535H29.6287C29.8149 22.8535 29.9935 22.9311 30.1251 23.0694C30.2568 23.2076 30.3308 23.3951 30.3308 23.5907C30.3308 23.7862 30.2568 23.9737 30.1251 24.1119C29.9935 24.2502 29.8149 24.3279 29.6287 24.3279ZM29.6287 21.379H26.8203C26.6341 21.379 26.4555 21.3014 26.3238 21.1631C26.1921 21.0249 26.1182 20.8374 26.1182 20.6418C26.1182 20.4463 26.1921 20.2588 26.3238 20.1205C26.4555 19.9823 26.6341 19.9046 26.8203 19.9046H29.6287C29.8149 19.9046 29.9935 19.9823 30.1251 20.1205C30.2568 20.2588 30.3308 20.4463 30.3308 20.6418C30.3308 20.8374 30.2568 21.0249 30.1251 21.1631C29.9935 21.3014 29.8149 21.379 29.6287 21.379ZM29.6287 18.4302H26.8203C26.6341 18.4302 26.4555 18.3525 26.3238 18.2143C26.1921 18.076 26.1182 17.8885 26.1182 17.693C26.1182 17.4975 26.1921 17.31 26.3238 17.1717C26.4555 17.0335 26.6341 16.9558 26.8203 16.9558H29.6287C29.8149 16.9558 29.9935 17.0335 30.1251 17.1717C30.2568 17.31 30.3308 17.4975 30.3308 17.693C30.3308 17.8885 30.2568 18.076 30.1251 18.2143C29.9935 18.3525 29.8149 18.4302 29.6287 18.4302ZM30.3308 14.007C30.3308 14.2025 30.2568 14.39 30.1251 14.5283C29.9935 14.6665 29.8149 14.7442 29.6287 14.7442H26.8203C26.6341 14.7442 26.4555 14.6665 26.3238 14.5283C26.1921 14.39 26.1182 14.2025 26.1182 14.007V11.0581C26.1182 10.8626 26.1921 10.6751 26.3238 10.5369C26.4555 10.3986 26.6341 10.3209 26.8203 10.3209H29.6287C29.8149 10.3209 29.9935 10.3986 30.1251 10.5369C30.2568 10.6751 30.3308 10.8626 30.3308 11.0581V14.007Z" fill="#104EE9"/>
</g>
<defs>
<clipPath id="clip0_56_507">
<rect width="29.4883" height="24.3278" fill="white" transform="translate(2.94873 5.89771)"/>
</clipPath>
</defs>
</svg>
