<svg width="36" height="36" viewBox="0 0 36 36" fill="none" xmlns="http://www.w3.org/2000/svg">
<g clip-path="url(#clip0_99_189)">
<path d="M19.5065 10.3209H9.6771C8.51383 10.3209 7.5708 11.3111 7.5708 12.5325V21.379C7.5708 22.6005 8.51383 23.5906 9.6771 23.5906H19.5065C20.6698 23.5906 21.6128 22.6005 21.6128 21.379V12.5325C21.6128 11.3111 20.6698 10.3209 19.5065 10.3209Z" fill="#A8A7AC"/>
<path fill-rule="evenodd" clip-rule="evenodd" d="M5.46406 26.5394H8.27247C8.45868 26.5394 8.63726 26.6171 8.76893 26.7554C8.9006 26.8936 8.97457 27.0811 8.97457 27.2766V28.0138C8.97457 28.6004 8.75266 29.1629 8.35765 29.5777C7.96264 29.9924 7.42689 30.2255 6.86827 30.2255C6.30964 30.2255 5.77389 29.9924 5.37889 29.5777C4.98388 29.1629 4.76196 28.6004 4.76196 28.0138V27.2766C4.76196 27.0811 4.83593 26.8936 4.9676 26.7554C5.09927 26.6171 5.27786 26.5394 5.46406 26.5394ZM27.9316 26.5394H30.74C30.9262 26.5394 31.1048 26.6171 31.2364 26.7554C31.3681 26.8936 31.4421 27.0811 31.4421 27.2766V28.0138C31.4421 28.6004 31.2202 29.1629 30.8252 29.5777C30.4301 29.9924 29.8944 30.2255 29.3358 30.2255C28.7771 30.2255 28.2414 29.9924 27.8464 29.5777C27.4514 29.1629 27.2295 28.6004 27.2295 28.0138V27.2766C27.2295 27.0811 27.3034 26.8936 27.4351 26.7554C27.5668 26.6171 27.7454 26.5394 27.9316 26.5394Z" fill="#A8A7AC"/>
<path d="M29.3358 12.5676V12.4974C29.3358 12.1096 29.0215 11.7953 28.6337 11.7953C28.246 11.7953 27.9316 12.1096 27.9316 12.4974V12.5676C27.9316 12.9554 28.246 13.2697 28.6337 13.2697C29.0215 13.2697 29.3358 12.9554 29.3358 12.5676Z" fill="#A8A7AC"/>
<path d="M24.2246 5.89771H5.46446C4.90583 5.89771 4.37009 6.13071 3.97508 6.54547C3.58007 6.96023 3.35815 7.52277 3.35815 8.10932V25.8023C3.35815 26.3888 3.58007 26.9514 3.97508 27.3661C4.37009 27.7809 4.90583 28.0139 5.46446 28.0139H24.2246V5.89771ZM20.9107 25.0651H8.27286C7.71424 25.0651 7.17849 24.8321 6.78348 24.4173C6.38847 24.0025 6.16656 23.44 6.16656 22.8535V11.0581C6.16656 10.4716 6.38847 9.90906 6.78348 9.4943C7.17849 9.07954 7.71424 8.84653 8.27286 8.84653H20.9107C21.4693 8.84653 22.0051 9.07954 22.4001 9.4943C22.7951 9.90906 23.017 10.4716 23.017 11.0581V22.8535C23.017 23.44 22.7951 24.0025 22.4001 24.4173C22.0051 24.8321 21.4693 25.0651 20.9107 25.0651Z" fill="#A8A7AC"/>
<path d="M30.7402 5.89771H25.6289V28.0139H30.7402C31.2988 28.0139 31.8346 27.7809 32.2296 27.3661C32.6246 26.9514 32.8465 26.3888 32.8465 25.8023V8.10932C32.8465 7.52277 32.6246 6.96023 32.2296 6.54547C31.8346 6.13071 31.2988 5.89771 30.7402 5.89771ZM30.0381 24.3279H27.2297C27.0435 24.3279 26.8649 24.2502 26.7332 24.1119C26.6016 23.9737 26.5276 23.7862 26.5276 23.5907C26.5276 23.3951 26.6016 23.2076 26.7332 23.0694C26.8649 22.9311 27.0435 22.8535 27.2297 22.8535H30.0381C30.2243 22.8535 30.4029 22.9311 30.5346 23.0694C30.6662 23.2076 30.7402 23.3951 30.7402 23.5907C30.7402 23.7862 30.6662 23.9737 30.5346 24.1119C30.4029 24.2502 30.2243 24.3279 30.0381 24.3279ZM30.0381 21.379H27.2297C27.0435 21.379 26.8649 21.3014 26.7332 21.1631C26.6016 21.0249 26.5276 20.8374 26.5276 20.6418C26.5276 20.4463 26.6016 20.2588 26.7332 20.1205C26.8649 19.9823 27.0435 19.9046 27.2297 19.9046H30.0381C30.2243 19.9046 30.4029 19.9823 30.5346 20.1205C30.6662 20.2588 30.7402 20.4463 30.7402 20.6418C30.7402 20.8374 30.6662 21.0249 30.5346 21.1631C30.4029 21.3014 30.2243 21.379 30.0381 21.379ZM30.0381 18.4302H27.2297C27.0435 18.4302 26.8649 18.3525 26.7332 18.2143C26.6016 18.076 26.5276 17.8885 26.5276 17.693C26.5276 17.4975 26.6016 17.31 26.7332 17.1717C26.8649 17.0335 27.0435 16.9558 27.2297 16.9558H30.0381C30.2243 16.9558 30.4029 17.0335 30.5346 17.1717C30.6662 17.31 30.7402 17.4975 30.7402 17.693C30.7402 17.8885 30.6662 18.076 30.5346 18.2143C30.4029 18.3525 30.2243 18.4302 30.0381 18.4302ZM30.7402 14.007C30.7402 14.2025 30.6662 14.39 30.5346 14.5283C30.4029 14.6665 30.2243 14.7442 30.0381 14.7442H27.2297C27.0435 14.7442 26.8649 14.6665 26.7332 14.5283C26.6016 14.39 26.5276 14.2025 26.5276 14.007V11.0581C26.5276 10.8626 26.6016 10.6751 26.7332 10.5369C26.8649 10.3986 27.0435 10.3209 27.2297 10.3209H30.0381C30.2243 10.3209 30.4029 10.3986 30.5346 10.5369C30.6662 10.6751 30.7402 10.8626 30.7402 11.0581V14.007Z" fill="#A8A7AC"/>
</g>
<defs>
<clipPath id="clip0_99_189">
<rect width="29.4883" height="24.3278" fill="white" transform="translate(3.35815 5.89771)"/>
</clipPath>
</defs>
</svg>
