<svg width="36" height="36" viewBox="0 0 36 36" fill="none" xmlns="http://www.w3.org/2000/svg">
<path fill-rule="evenodd" clip-rule="evenodd" d="M21.2561 10.3206C21.2561 8.69435 19.9335 7.3718 18.3072 7.3718C16.681 7.3718 15.3584 8.69435 15.3584 10.3206C15.3584 11.9469 16.681 13.2694 18.3072 13.2694C19.9335 13.2694 21.2561 11.9469 21.2561 10.3206ZM24.2049 10.3206C24.2049 13.5732 21.5598 16.2183 18.3072 16.2183C15.0547 16.2183 12.4096 13.5732 12.4096 10.3206C12.4096 7.06807 15.0547 4.42297 18.3072 4.42297C21.5598 4.42297 24.2049 7.06807 24.2049 10.3206ZM7.98633 29.4881C7.98633 23.7969 12.6175 19.1672 18.3072 19.1672C23.997 19.1672 28.6281 23.7969 28.6281 29.4881C28.6281 30.302 27.969 30.9625 27.1537 30.9625C26.3383 30.9625 25.6793 30.302 25.6793 29.4881C25.6793 25.4231 22.3722 22.116 18.3072 22.116C14.2423 22.116 10.9352 25.4231 10.9352 29.4881C10.9352 30.302 10.2761 30.9625 9.46074 30.9625C8.64539 30.9625 7.98633 30.302 7.98633 29.4881Z" fill="#A8A7AC"/>
</svg>
