<svg width="36" height="36" viewBox="0 0 36 36" fill="none" xmlns="http://www.w3.org/2000/svg">
<path fill-rule="evenodd" clip-rule="evenodd" d="M20.6417 10.3206C20.6417 8.69435 19.3191 7.3718 17.6929 7.3718C16.0666 7.3718 14.744 8.69435 14.744 10.3206C14.744 11.9469 16.0666 13.2694 17.6929 13.2694C19.3191 13.2694 20.6417 11.9469 20.6417 10.3206ZM23.5905 10.3206C23.5905 13.5732 20.9454 16.2183 17.6929 16.2183C14.4403 16.2183 11.7952 13.5732 11.7952 10.3206C11.7952 7.06807 14.4403 4.42297 17.6929 4.42297C20.9454 4.42297 23.5905 7.06807 23.5905 10.3206ZM7.37207 29.4881C7.37207 23.7969 12.0032 19.1672 17.693 19.1672C23.3827 19.1672 28.0138 23.7969 28.0138 29.4881C28.0138 30.302 27.3548 30.9625 26.5394 30.9625C25.7241 30.9625 25.065 30.302 25.065 29.4881C25.065 25.4231 21.7579 22.116 17.693 22.116C13.628 22.116 10.3209 25.4231 10.3209 29.4881C10.3209 30.302 9.66183 30.9625 8.84648 30.9625C8.03113 30.9625 7.37207 30.302 7.37207 29.4881Z" fill="#104EE9"/>
</svg>
